G04*
G04 #@! TF.GenerationSoftware,Altium Limited,Altium Designer,22.10.1 (41)*
G04*
G04 Layer_Physical_Order=1*
G04 Layer_Color=255*
%FSLAX25Y25*%
%MOIN*%
G70*
G04*
G04 #@! TF.SameCoordinates,383651A2-C0D2-4D73-959B-37C4E0350145*
G04*
G04*
G04 #@! TF.FilePolarity,Positive*
G04*
G01*
G75*
%ADD16R,0.04331X0.04331*%
%ADD17R,0.05906X0.03543*%
%ADD18R,0.03543X0.05906*%
%ADD24R,0.05118X0.05512*%
%ADD25R,0.23779X0.13386*%
%ADD26O,0.11811X0.02756*%
%ADD27C,0.03937*%
%ADD28R,0.04528X0.05315*%
%ADD29R,0.05315X0.04528*%
G04:AMPARAMS|DCode=30|XSize=55.12mil|YSize=82.68mil|CornerRadius=13.78mil|HoleSize=0mil|Usage=FLASHONLY|Rotation=90.000|XOffset=0mil|YOffset=0mil|HoleType=Round|Shape=RoundedRectangle|*
%AMROUNDEDRECTD30*
21,1,0.05512,0.05512,0,0,90.0*
21,1,0.02756,0.08268,0,0,90.0*
1,1,0.02756,0.02756,0.01378*
1,1,0.02756,0.02756,-0.01378*
1,1,0.02756,-0.02756,-0.01378*
1,1,0.02756,-0.02756,0.01378*
%
%ADD30ROUNDEDRECTD30*%
%ADD31C,0.03937*%
%ADD32C,0.00826*%
%ADD33C,0.02362*%
%ADD34C,0.01181*%
%ADD35C,0.03150*%
%ADD36C,0.02362*%
G36*
X358108Y220783D02*
X355224D01*
Y217028D01*
Y213272D01*
X358108D01*
Y121866D01*
X353528D01*
Y120334D01*
X350705D01*
Y121768D01*
X349665D01*
Y123272D01*
X350248Y123609D01*
X350801Y124162D01*
X351191Y124838D01*
X351394Y125593D01*
Y126375D01*
X351191Y127130D01*
X350801Y127807D01*
X350747Y127860D01*
Y129788D01*
X351101Y130142D01*
X351756Y130142D01*
X351894Y130142D01*
X354028D01*
Y134095D01*
Y138047D01*
X351894D01*
X351756Y138047D01*
X351346D01*
X350846Y138265D01*
Y140649D01*
X350846Y140650D01*
X350677Y141501D01*
X350195Y142222D01*
X350195Y142222D01*
X343206Y149210D01*
X342485Y149692D01*
X341634Y149862D01*
X341634Y149862D01*
X270571D01*
X270356Y149819D01*
X270137D01*
X269935Y149735D01*
X269720Y149692D01*
X269538Y149571D01*
X269335Y149487D01*
X269180Y149332D01*
X268998Y149210D01*
X268877Y149028D01*
X268722Y148873D01*
X268638Y148671D01*
X268516Y148489D01*
X268474Y148274D01*
X268390Y148072D01*
Y147853D01*
X268347Y147638D01*
X268390Y147423D01*
Y147204D01*
X268474Y147002D01*
X268516Y146787D01*
X268638Y146605D01*
X268722Y146402D01*
X268877Y146247D01*
X268998Y146065D01*
X269180Y145944D01*
X269335Y145789D01*
X269538Y145705D01*
X269720Y145583D01*
X269935Y145540D01*
X270137Y145457D01*
X270356D01*
X270571Y145414D01*
X340713D01*
X346398Y139728D01*
Y138047D01*
X345850D01*
Y138047D01*
X345488D01*
Y138047D01*
X339945D01*
Y138047D01*
X339583D01*
Y138047D01*
X334177D01*
X334039Y138047D01*
X333677D01*
X333539Y138047D01*
X328134D01*
Y138047D01*
X327772D01*
Y138047D01*
X322228D01*
Y138047D01*
X321866D01*
Y138047D01*
X316323D01*
Y138047D01*
X315961D01*
Y138047D01*
X310417D01*
Y138047D01*
X310055D01*
Y138047D01*
X304512D01*
Y138047D01*
X304150D01*
Y138047D01*
X298606D01*
Y138047D01*
X298244D01*
Y138047D01*
X292701D01*
Y138047D01*
X292339D01*
Y138047D01*
X286795D01*
Y138047D01*
X286433D01*
Y138047D01*
X280890D01*
Y138047D01*
X280527D01*
Y138047D01*
X274984D01*
Y138047D01*
X274622D01*
Y138047D01*
X269079D01*
Y138047D01*
X268717D01*
Y138047D01*
X263173D01*
Y130142D01*
X263623D01*
Y128057D01*
X263373Y127807D01*
X262982Y127130D01*
X262779Y126375D01*
Y125593D01*
X262982Y124838D01*
X263373Y124162D01*
X263925Y123609D01*
X264602Y123218D01*
X265357Y123016D01*
X266139D01*
X266894Y123218D01*
X267571Y123609D01*
X268123Y124162D01*
X268424Y124683D01*
X268498Y124707D01*
X268904D01*
X268977Y124683D01*
X269278Y124162D01*
X269831Y123609D01*
X270508Y123218D01*
X271263Y123016D01*
X272044D01*
X272799Y123218D01*
X273476Y123609D01*
X274029Y124162D01*
X274330Y124683D01*
X274403Y124707D01*
X274809D01*
X274883Y124683D01*
X275184Y124162D01*
X275736Y123609D01*
X276413Y123218D01*
X277168Y123016D01*
X277950D01*
X278705Y123218D01*
X279382Y123609D01*
X279935Y124162D01*
X280236Y124683D01*
X280309Y124707D01*
X280715D01*
X280788Y124683D01*
X281089Y124162D01*
X281642Y123609D01*
X282319Y123218D01*
X283074Y123016D01*
X283855D01*
X284610Y123218D01*
X285287Y123609D01*
X285840Y124162D01*
X286141Y124683D01*
X286214Y124707D01*
X286620D01*
X286694Y124683D01*
X286995Y124162D01*
X287547Y123609D01*
X288224Y123218D01*
X288979Y123016D01*
X289761D01*
X290516Y123218D01*
X291193Y123609D01*
X291745Y124162D01*
X292046Y124683D01*
X292120Y124707D01*
X292526D01*
X292599Y124683D01*
X292900Y124162D01*
X293453Y123609D01*
X294130Y123218D01*
X294885Y123016D01*
X295666D01*
X296421Y123218D01*
X297098Y123609D01*
X297651Y124162D01*
X297952Y124683D01*
X298025Y124707D01*
X298431D01*
X298505Y124683D01*
X298806Y124162D01*
X299358Y123609D01*
X300035Y123218D01*
X300790Y123016D01*
X301572D01*
X302327Y123218D01*
X303004Y123609D01*
X303556Y124162D01*
X303857Y124683D01*
X303931Y124707D01*
X304337D01*
X304410Y124683D01*
X304711Y124162D01*
X305264Y123609D01*
X305941Y123218D01*
X306696Y123016D01*
X307477D01*
X308232Y123218D01*
X308909Y123609D01*
X309462Y124162D01*
X309763Y124683D01*
X309836Y124707D01*
X310243D01*
X310316Y124683D01*
X310617Y124162D01*
X311169Y123609D01*
X311846Y123218D01*
X312601Y123016D01*
X313383D01*
X314138Y123218D01*
X314815Y123609D01*
X315368Y124162D01*
X315669Y124683D01*
X315742Y124707D01*
X316148D01*
X316221Y124683D01*
X316522Y124162D01*
X317075Y123609D01*
X317752Y123218D01*
X318507Y123016D01*
X319288D01*
X320043Y123218D01*
X320720Y123609D01*
X321273Y124162D01*
X321574Y124683D01*
X321647Y124707D01*
X322054D01*
X322127Y124683D01*
X322428Y124162D01*
X322980Y123609D01*
X323657Y123218D01*
X324412Y123016D01*
X325194D01*
X325504Y122581D01*
X325406Y122434D01*
X325361Y122207D01*
X324922Y121768D01*
X321539D01*
Y114453D01*
X327929D01*
X328067Y114453D01*
Y114453D01*
X328429D01*
Y114453D01*
X329785D01*
Y112500D01*
X329873Y111828D01*
X330133Y111202D01*
X330545Y110664D01*
X330841Y110368D01*
X331379Y109956D01*
X331785Y109787D01*
X331686Y109287D01*
X156805D01*
X155481Y109551D01*
X154234Y110067D01*
X153111Y110818D01*
X152156Y111772D01*
X151406Y112895D01*
X150889Y114142D01*
X150626Y115467D01*
Y116142D01*
Y218504D01*
Y219179D01*
X150889Y220503D01*
X151406Y221751D01*
X152156Y222873D01*
X153111Y223828D01*
X154234Y224578D01*
X155481Y225095D01*
X156805Y225358D01*
X336075D01*
X336318Y224858D01*
X335990Y224430D01*
X335691Y223708D01*
X335589Y222933D01*
Y220783D01*
X332784D01*
Y217028D01*
X332283D01*
Y216528D01*
X328724D01*
Y213272D01*
X328724Y213272D01*
X328724D01*
X328673Y212793D01*
X328333Y212453D01*
X328032Y211931D01*
X327959Y211907D01*
X327553D01*
X327480Y211931D01*
X327179Y212453D01*
X326626Y213005D01*
X325949Y213396D01*
X325194Y213598D01*
X324412D01*
X323657Y213396D01*
X322980Y213005D01*
X322428Y212453D01*
X322127Y211931D01*
X322054Y211907D01*
X321647D01*
X321574Y211931D01*
X321273Y212453D01*
X320720Y213005D01*
X320043Y213396D01*
X319288Y213598D01*
X318507D01*
X317752Y213396D01*
X317075Y213005D01*
X316522Y212453D01*
X316221Y211931D01*
X316148Y211907D01*
X315742D01*
X315669Y211931D01*
X315368Y212453D01*
X314815Y213005D01*
X314138Y213396D01*
X313383Y213598D01*
X312601D01*
X311846Y213396D01*
X311169Y213005D01*
X310617Y212453D01*
X310316Y211931D01*
X310243Y211907D01*
X309836D01*
X309763Y211931D01*
X309462Y212453D01*
X308909Y213005D01*
X308232Y213396D01*
X307477Y213598D01*
X306696D01*
X305941Y213396D01*
X305264Y213005D01*
X304711Y212453D01*
X304410Y211931D01*
X304337Y211907D01*
X303931D01*
X303857Y211931D01*
X303556Y212453D01*
X303004Y213005D01*
X302327Y213396D01*
X301572Y213598D01*
X300790D01*
X300035Y213396D01*
X299358Y213005D01*
X298806Y212453D01*
X298505Y211931D01*
X298431Y211907D01*
X298025D01*
X297952Y211931D01*
X297651Y212453D01*
X297098Y213005D01*
X296421Y213396D01*
X295666Y213598D01*
X294885D01*
X294130Y213396D01*
X293453Y213005D01*
X292900Y212453D01*
X292599Y211931D01*
X292526Y211907D01*
X292120D01*
X292046Y211931D01*
X291745Y212453D01*
X291193Y213005D01*
X290516Y213396D01*
X289761Y213598D01*
X288979D01*
X288224Y213396D01*
X287547Y213005D01*
X286995Y212453D01*
X286694Y211931D01*
X286620Y211907D01*
X286214D01*
X286141Y211931D01*
X285840Y212453D01*
X285287Y213005D01*
X284610Y213396D01*
X283855Y213598D01*
X283074D01*
X282319Y213396D01*
X281642Y213005D01*
X281089Y212453D01*
X280788Y211931D01*
X280715Y211907D01*
X280309D01*
X280236Y211931D01*
X279935Y212453D01*
X279382Y213005D01*
X278705Y213396D01*
X277950Y213598D01*
X277168D01*
X276413Y213396D01*
X275736Y213005D01*
X275184Y212453D01*
X274883Y211931D01*
X274809Y211907D01*
X274403D01*
X274330Y211931D01*
X274029Y212453D01*
X273476Y213005D01*
X272799Y213396D01*
X272044Y213598D01*
X271263D01*
X270508Y213396D01*
X269831Y213005D01*
X269278Y212453D01*
X268977Y211931D01*
X268904Y211907D01*
X268498D01*
X268424Y211931D01*
X268123Y212453D01*
X267571Y213005D01*
X266894Y213396D01*
X266139Y213598D01*
X265357D01*
X264602Y213396D01*
X263925Y213005D01*
X263373Y212453D01*
X262982Y211776D01*
X262779Y211021D01*
Y210239D01*
X262982Y209484D01*
X263373Y208807D01*
X263623Y208557D01*
Y206945D01*
X263173D01*
Y199039D01*
X268717D01*
Y199039D01*
X269079D01*
Y199039D01*
X274622D01*
Y199039D01*
X274984D01*
Y199039D01*
X280527D01*
Y199039D01*
X280890D01*
Y199039D01*
X286433D01*
Y199039D01*
X286795D01*
Y199039D01*
X292339D01*
Y199039D01*
X292701D01*
Y199039D01*
X298244D01*
Y199039D01*
X298606D01*
Y199039D01*
X304150D01*
Y199039D01*
X304512D01*
Y199039D01*
X310055D01*
Y199039D01*
X310417D01*
Y199039D01*
X315961D01*
Y199039D01*
X316323D01*
Y199039D01*
X321866D01*
Y199039D01*
X322228D01*
Y199039D01*
X327772D01*
Y199039D01*
X328134D01*
Y199039D01*
X333677D01*
Y199039D01*
X334039D01*
Y199039D01*
X336568D01*
X336760Y198577D01*
X331056Y192873D01*
X313681D01*
X313681Y192874D01*
X312830Y192704D01*
X312109Y192222D01*
X312109Y192222D01*
X276047Y156161D01*
X274705D01*
X274705Y156161D01*
X273854Y155992D01*
X273445Y155718D01*
X273371Y155688D01*
X273314Y155631D01*
X273132Y155509D01*
X273132Y155509D01*
X273034Y155411D01*
X272912Y155229D01*
X272757Y155074D01*
X272673Y154872D01*
X272552Y154690D01*
X272509Y154475D01*
X272425Y154272D01*
Y154053D01*
X272382Y153839D01*
X272425Y153624D01*
Y153405D01*
X272509Y153202D01*
X272552Y152988D01*
X272673Y152805D01*
X272757Y152603D01*
X272912Y152448D01*
X273034Y152266D01*
X273216Y152144D01*
X273371Y151989D01*
X273573Y151906D01*
X273755Y151784D01*
X273970Y151741D01*
X274172Y151657D01*
X274391D01*
X274606Y151615D01*
X274821Y151657D01*
X275040D01*
X275175Y151713D01*
X276968D01*
X276969Y151713D01*
X277819Y151883D01*
X278541Y152365D01*
X314602Y188426D01*
X331977D01*
X331977Y188426D01*
X332828Y188595D01*
X333549Y189077D01*
X342124Y197652D01*
X342124Y197652D01*
X342606Y198373D01*
X342651Y198600D01*
X343090Y199039D01*
X345488D01*
Y199039D01*
X345850D01*
Y199039D01*
X351256D01*
X351394Y199039D01*
X351756D01*
X351894Y199039D01*
X354028D01*
Y202992D01*
Y206945D01*
X351474Y206945D01*
X351121Y207298D01*
Y213272D01*
X354224D01*
Y217028D01*
Y220783D01*
X351419D01*
Y222933D01*
X351317Y223708D01*
X351018Y224430D01*
X350690Y224858D01*
X350932Y225358D01*
X358108D01*
Y220783D01*
D02*
G37*
G36*
X334039Y130142D02*
X334489Y129771D01*
Y128057D01*
X334239Y127807D01*
X333848Y127130D01*
X333646Y126375D01*
Y125593D01*
X333848Y124838D01*
X334239Y124162D01*
X334791Y123609D01*
X335468Y123218D01*
X336223Y123016D01*
X337005D01*
X337760Y123218D01*
X338437Y123609D01*
X338990Y124162D01*
X339291Y124683D01*
X339364Y124707D01*
X339770D01*
X339843Y124683D01*
X340144Y124162D01*
X340697Y123609D01*
X341374Y123218D01*
X342129Y123016D01*
X342911D01*
X343666Y123218D01*
X344342Y123609D01*
X344717Y123984D01*
X345217Y123776D01*
Y121768D01*
X344315D01*
X344177Y121768D01*
X343815D01*
X343677Y121768D01*
X337287D01*
Y114453D01*
X337954D01*
Y112205D01*
X338043Y111533D01*
X338302Y110906D01*
X338715Y110368D01*
X339253Y109956D01*
X339659Y109787D01*
X339560Y109287D01*
X333669D01*
X333569Y109787D01*
X333976Y109956D01*
X334513Y110368D01*
X334926Y110906D01*
X335186Y111533D01*
X335274Y112205D01*
X335186Y112877D01*
X334979Y113376D01*
Y117421D01*
X334957Y117590D01*
Y121768D01*
X331444D01*
X331252Y122230D01*
X332478Y123456D01*
X332960Y124177D01*
X333129Y125028D01*
X333129Y125028D01*
Y129788D01*
X333483Y130142D01*
X334039Y130142D01*
D02*
G37*
G36*
X353528Y114354D02*
X358108D01*
Y109287D01*
X341543D01*
X341443Y109787D01*
X341850Y109956D01*
X342388Y110368D01*
X342800Y110906D01*
X343060Y111533D01*
X343148Y112205D01*
Y114099D01*
X343502Y114453D01*
X344177Y114453D01*
X344315Y114453D01*
X350705D01*
Y115886D01*
X353528D01*
Y114354D01*
D02*
G37*
%LPC*%
G36*
X331784Y220783D02*
X328724D01*
Y217528D01*
X331784D01*
Y220783D01*
D02*
G37*
G36*
X192024Y222260D02*
X179634D01*
Y215067D01*
X192024D01*
Y222260D01*
D02*
G37*
G36*
X178634D02*
X166244D01*
Y215067D01*
X178634D01*
Y222260D01*
D02*
G37*
G36*
X192024Y214067D02*
X179634D01*
Y206874D01*
X192024D01*
Y214067D01*
D02*
G37*
G36*
X178634D02*
X166244D01*
Y206874D01*
X178634D01*
Y214067D01*
D02*
G37*
G36*
X355028Y206945D02*
Y203492D01*
X357299D01*
Y206945D01*
X355028D01*
D02*
G37*
G36*
X357299Y202492D02*
X355028D01*
Y199039D01*
X357299D01*
Y202492D01*
D02*
G37*
G36*
X266945Y197890D02*
X259039D01*
Y197224D01*
X255793D01*
X255760Y197257D01*
X255083Y197648D01*
X254328Y197850D01*
X253546D01*
X252791Y197648D01*
X252114Y197257D01*
X251562Y196705D01*
X251171Y196028D01*
X250969Y195273D01*
Y194491D01*
X251171Y193736D01*
X251562Y193059D01*
X252114Y192507D01*
X252636Y192206D01*
X252660Y192132D01*
Y191726D01*
X252636Y191653D01*
X252114Y191352D01*
X251562Y190799D01*
X251171Y190122D01*
X250969Y189367D01*
Y188586D01*
X251060Y188246D01*
X250658Y187811D01*
X249841D01*
Y190945D01*
X249753Y191617D01*
X249493Y192243D01*
X249080Y192781D01*
X248543Y193194D01*
X247916Y193453D01*
X247244Y193542D01*
X246572Y193453D01*
X245946Y193194D01*
X245408Y192781D01*
X244995Y192243D01*
X244736Y191617D01*
X244647Y190945D01*
Y187811D01*
X243587D01*
Y187636D01*
X241339D01*
X240666Y187548D01*
X240040Y187288D01*
X239502Y186876D01*
X239089Y186338D01*
X238830Y185712D01*
X238742Y185039D01*
X238830Y184367D01*
X239089Y183741D01*
X239502Y183203D01*
X240040Y182790D01*
X240666Y182531D01*
X241339Y182442D01*
X243587D01*
Y181421D01*
X243587Y181283D01*
Y180921D01*
X243587Y180783D01*
Y176427D01*
X243125Y176236D01*
X224962Y194399D01*
X224495Y194711D01*
X223943Y194821D01*
X223943Y194821D01*
X211654D01*
X211362Y195177D01*
X211177Y196105D01*
X210651Y196892D01*
X209865Y197417D01*
X208937Y197602D01*
X199882D01*
X198954Y197417D01*
X198168Y196892D01*
X197642Y196105D01*
X197457Y195177D01*
X197642Y194249D01*
X198168Y193463D01*
X198875Y192990D01*
X198919Y192717D01*
X198875Y192443D01*
X198168Y191970D01*
X197642Y191184D01*
X197457Y190256D01*
X197642Y189328D01*
X198168Y188541D01*
X198875Y188069D01*
X198919Y187795D01*
X198875Y187522D01*
X198168Y187049D01*
X197642Y186263D01*
X197557Y185835D01*
X204409D01*
X211262D01*
X211177Y186263D01*
X210651Y187049D01*
X209944Y187522D01*
X209900Y187795D01*
X209944Y188069D01*
X210651Y188541D01*
X211177Y189328D01*
X211362Y190256D01*
X211654Y190612D01*
X222797D01*
X242815Y170595D01*
X242608Y170095D01*
X242184D01*
X241383Y169762D01*
X240769Y169149D01*
X240437Y168347D01*
Y167480D01*
X240769Y166678D01*
X241383Y166064D01*
X242184Y165732D01*
X243052D01*
X243854Y166064D01*
X244467Y166678D01*
X244799Y167480D01*
Y167903D01*
X245299Y168110D01*
X251621Y161788D01*
X251362Y161162D01*
Y160294D01*
X251694Y159493D01*
X252308Y158879D01*
X253110Y158547D01*
X253977D01*
X254779Y158879D01*
X255392Y159493D01*
X255506Y159766D01*
X255984Y159912D01*
X256070Y159854D01*
X256211Y159826D01*
X256497Y159541D01*
X256497Y159541D01*
X256964Y159228D01*
X257516Y159118D01*
X257516Y159118D01*
X259039D01*
Y157051D01*
X259039Y156913D01*
Y156551D01*
X259039Y156413D01*
Y155885D01*
X255793D01*
X255760Y155919D01*
X255083Y156309D01*
X254328Y156512D01*
X253546D01*
X252791Y156309D01*
X252114Y155919D01*
X251562Y155366D01*
X251296Y155331D01*
X251028Y155600D01*
X250226Y155932D01*
X249359D01*
X248557Y155600D01*
X248540Y155583D01*
X248268Y155623D01*
X247979Y156153D01*
X248146Y156554D01*
Y157422D01*
X247814Y158224D01*
X247200Y158837D01*
X247069Y158891D01*
Y159433D01*
X247397Y159568D01*
X248010Y160182D01*
X248342Y160984D01*
Y161851D01*
X248010Y162653D01*
X247397Y163266D01*
X246595Y163598D01*
X245728D01*
X244926Y163266D01*
X244312Y162653D01*
X243980Y161851D01*
Y160984D01*
X244312Y160182D01*
X244926Y159568D01*
X245057Y159514D01*
Y158973D01*
X244729Y158837D01*
X244115Y158224D01*
X243783Y157422D01*
Y156554D01*
X244066Y155872D01*
X243843Y155372D01*
X237296D01*
X234191Y158478D01*
X233469Y158960D01*
X232618Y159129D01*
X232618Y159129D01*
X226180D01*
X225467Y159271D01*
X225467Y159271D01*
X222564D01*
X222564Y159271D01*
X221852Y159129D01*
X214189D01*
X214189Y159129D01*
X213338Y158960D01*
X212616Y158478D01*
X212616Y158478D01*
X203902Y149763D01*
X201591D01*
Y151295D01*
X195063D01*
X195063Y151295D01*
X194701D01*
Y151295D01*
X194563Y151295D01*
X188173D01*
Y149862D01*
X185843D01*
Y151394D01*
X176484D01*
Y147638D01*
X175984D01*
Y147138D01*
X172425D01*
Y145137D01*
X166732D01*
X166732Y145137D01*
X165881Y144968D01*
X165160Y144486D01*
X161287Y140613D01*
X156496D01*
X155568Y140429D01*
X154782Y139903D01*
X154256Y139117D01*
X154071Y138189D01*
Y135433D01*
X154256Y134505D01*
X154782Y133719D01*
X155568Y133193D01*
X156496Y133009D01*
X162008D01*
X162936Y133193D01*
X163722Y133719D01*
X164248Y134505D01*
X164432Y135433D01*
Y137469D01*
X167653Y140690D01*
X179359D01*
X179359Y140690D01*
X180210Y140859D01*
X180931Y141341D01*
X182478Y142888D01*
X182478Y142888D01*
X182960Y143609D01*
X183014Y143882D01*
X185843D01*
Y145414D01*
X188173D01*
Y143980D01*
X191064D01*
X192855Y142189D01*
Y140613D01*
X192323D01*
X191395Y140429D01*
X190608Y139903D01*
X190083Y139117D01*
X189898Y138189D01*
Y135433D01*
X190083Y134505D01*
X190608Y133719D01*
X191395Y133193D01*
X192323Y133009D01*
X197835D01*
X198763Y133193D01*
X199549Y133719D01*
X200075Y134505D01*
X200259Y135433D01*
Y138189D01*
X200075Y139117D01*
X199549Y139903D01*
X198763Y140429D01*
X197835Y140613D01*
X197303D01*
Y143110D01*
X197229Y143480D01*
X197639Y143980D01*
X201591D01*
Y145316D01*
X204823D01*
X204823Y145316D01*
X205674Y145485D01*
X206395Y145967D01*
X215110Y154682D01*
X222423D01*
X222423Y154682D01*
X223135Y154823D01*
X224896D01*
X225609Y154682D01*
X225609Y154682D01*
X231697D01*
X234201Y152178D01*
X234922Y151696D01*
X235095Y151662D01*
X235417Y151295D01*
X235417Y151228D01*
Y149862D01*
X233874D01*
Y151394D01*
X224516D01*
Y147638D01*
X224016D01*
Y147138D01*
X220457D01*
Y145137D01*
X215945D01*
X215945Y145137D01*
X215094Y144968D01*
X214372Y144486D01*
X210500Y140613D01*
X205709D01*
X204781Y140429D01*
X203994Y139903D01*
X203469Y139117D01*
X203284Y138189D01*
Y135433D01*
X203469Y134505D01*
X203994Y133719D01*
X204781Y133193D01*
X205709Y133009D01*
X211221D01*
X212148Y133193D01*
X212935Y133719D01*
X213460Y134505D01*
X213645Y135433D01*
Y137469D01*
X216866Y140690D01*
X227390D01*
X227390Y140690D01*
X228241Y140859D01*
X228963Y141341D01*
X230509Y142888D01*
X230509Y142888D01*
X230992Y143609D01*
X231046Y143882D01*
X233874D01*
Y145414D01*
X235417D01*
Y143980D01*
X236457D01*
Y141150D01*
X236457Y141150D01*
X236627Y140299D01*
X237109Y139577D01*
X239111Y137575D01*
Y135433D01*
X239295Y134505D01*
X239821Y133719D01*
X240608Y133193D01*
X241535Y133009D01*
X247047D01*
X247975Y133193D01*
X248762Y133719D01*
X249287Y134505D01*
X249472Y135433D01*
Y138189D01*
X249287Y139117D01*
X248762Y139903D01*
X247975Y140429D01*
X247776Y140979D01*
X247949Y141397D01*
Y142265D01*
X247617Y143066D01*
X247203Y143480D01*
X247410Y143980D01*
X248835D01*
Y145681D01*
X249796D01*
X250011Y145724D01*
X250230D01*
X250432Y145808D01*
X250647Y145850D01*
X250829Y145972D01*
X251031Y146056D01*
X251538Y145856D01*
X251562Y145815D01*
X252114Y145262D01*
X252791Y144872D01*
X253546Y144669D01*
X254328D01*
X255083Y144872D01*
X255760Y145262D01*
X256029Y145532D01*
X258686D01*
X259039Y145178D01*
X259039Y144740D01*
X259039Y144602D01*
Y142469D01*
X262992D01*
X266945D01*
Y144602D01*
X266945Y144740D01*
Y145102D01*
X266945Y145240D01*
Y150646D01*
X266945D01*
Y151008D01*
X266945D01*
Y156413D01*
X266945Y156551D01*
Y156913D01*
X266945Y157051D01*
Y162457D01*
X266945Y162457D01*
Y162819D01*
X266945D01*
X266945Y162957D01*
Y168362D01*
X266945D01*
Y168724D01*
X266945D01*
Y174268D01*
X266945D01*
Y174630D01*
X266945D01*
Y180173D01*
X266945D01*
Y180535D01*
X266945D01*
Y186079D01*
X266945D01*
Y186441D01*
X266945D01*
Y191984D01*
X266945D01*
Y192347D01*
X266945D01*
Y197890D01*
D02*
G37*
G36*
X177345Y202378D02*
X176356D01*
X175401Y202122D01*
X174544Y201627D01*
X173845Y200928D01*
X173351Y200072D01*
X173094Y199117D01*
Y198128D01*
X173351Y197172D01*
X173845Y196316D01*
X174544Y195617D01*
X175401Y195122D01*
X176356Y194866D01*
X177345D01*
X178300Y195122D01*
X179157Y195617D01*
X179856Y196316D01*
X180350Y197172D01*
X180606Y198128D01*
Y199117D01*
X180350Y200072D01*
X179856Y200928D01*
X179157Y201627D01*
X178300Y202122D01*
X177345Y202378D01*
D02*
G37*
G36*
X211262Y184835D02*
X204409D01*
X197557D01*
X197642Y184407D01*
X198168Y183620D01*
X198555Y183361D01*
X198676Y182716D01*
X198568Y182562D01*
X195791D01*
X195791Y182562D01*
X194940Y182393D01*
X194218Y181911D01*
X194218Y181911D01*
X193605Y181297D01*
X193483Y181115D01*
X193328Y180960D01*
X193244Y180757D01*
X193123Y180575D01*
X193080Y180361D01*
X192996Y180158D01*
Y179939D01*
X192953Y179724D01*
X192996Y179510D01*
Y179291D01*
X193080Y179088D01*
X193123Y178873D01*
X193244Y178691D01*
X193328Y178489D01*
X193483Y178334D01*
X193605Y178152D01*
X193787Y178030D01*
X193942Y177875D01*
X194144Y177792D01*
X194326Y177670D01*
X194541Y177627D01*
X194743Y177543D01*
X194962D01*
X195177Y177501D01*
X195392Y177543D01*
X195611D01*
X195813Y177627D01*
X196028Y177670D01*
X196210Y177792D01*
X196413Y177875D01*
X196567Y178030D01*
X196693Y178114D01*
X199252D01*
X199882Y177989D01*
X208937D01*
X209865Y178173D01*
X209889Y178190D01*
X212722D01*
X212749Y178163D01*
X212951Y178079D01*
X213133Y177957D01*
X213348Y177915D01*
X213550Y177831D01*
X213769D01*
X213984Y177788D01*
X214199Y177831D01*
X214418D01*
X214620Y177915D01*
X214835Y177957D01*
X215017Y178079D01*
X215220Y178163D01*
X215375Y178318D01*
X215557Y178439D01*
X215678Y178621D01*
X215833Y178776D01*
X215917Y178979D01*
X216039Y179161D01*
X216082Y179376D01*
X216165Y179578D01*
Y179797D01*
X216208Y180012D01*
X216165Y180227D01*
Y180446D01*
X216082Y180648D01*
X216039Y180863D01*
X215917Y181045D01*
X215833Y181247D01*
X215678Y181402D01*
X215557Y181584D01*
X215155Y181986D01*
X214434Y182468D01*
X213583Y182637D01*
X213583Y182637D01*
X210164D01*
X209937Y183106D01*
X209944Y183148D01*
X210651Y183620D01*
X211177Y184407D01*
X211262Y184835D01*
D02*
G37*
G36*
X331906Y182299D02*
X329240D01*
Y179634D01*
X331906D01*
Y182299D01*
D02*
G37*
G36*
X316429D02*
X313764D01*
Y179634D01*
X316429D01*
Y182299D01*
D02*
G37*
G36*
X328240D02*
X323335D01*
Y179134D01*
X322335D01*
Y182299D01*
X317429D01*
Y179134D01*
X316929D01*
Y178634D01*
X313764D01*
Y175969D01*
Y173728D01*
X316929D01*
Y172728D01*
X313764D01*
Y170063D01*
Y167823D01*
X316929D01*
Y167323D01*
X317429D01*
Y164157D01*
X322335D01*
Y167323D01*
X323335D01*
Y164157D01*
X328240D01*
Y167323D01*
X328740D01*
Y167823D01*
X331906D01*
Y170063D01*
Y172728D01*
X328740D01*
Y173728D01*
X331906D01*
Y175969D01*
Y178634D01*
X328740D01*
Y179134D01*
X328240D01*
Y182299D01*
D02*
G37*
G36*
X177345Y180724D02*
X176356D01*
X175401Y180468D01*
X174544Y179974D01*
X173845Y179275D01*
X173351Y178418D01*
X173094Y177463D01*
Y176474D01*
X173351Y175519D01*
X173845Y174662D01*
X174544Y173963D01*
X175401Y173469D01*
X176356Y173213D01*
X177345D01*
X178300Y173469D01*
X179157Y173963D01*
X179856Y174662D01*
X180350Y175519D01*
X180606Y176474D01*
Y177463D01*
X180350Y178418D01*
X179856Y179275D01*
X179157Y179974D01*
X178300Y180468D01*
X177345Y180724D01*
D02*
G37*
G36*
X236654Y170193D02*
X235787D01*
X234985Y169861D01*
X234371Y169247D01*
X234039Y168446D01*
Y167578D01*
X234371Y166776D01*
X234985Y166163D01*
X235787Y165831D01*
X236654D01*
X237456Y166163D01*
X238070Y166776D01*
X238402Y167578D01*
Y168446D01*
X238070Y169247D01*
X237456Y169861D01*
X236654Y170193D01*
D02*
G37*
G36*
X331906Y166823D02*
X329240D01*
Y164157D01*
X331906D01*
Y166823D01*
D02*
G37*
G36*
X316429D02*
X313764D01*
Y164157D01*
X316429D01*
Y166823D01*
D02*
G37*
G36*
X192024Y168717D02*
X179634D01*
Y161524D01*
X192024D01*
Y168717D01*
D02*
G37*
G36*
X178634D02*
X166244D01*
Y161524D01*
X178634D01*
Y168717D01*
D02*
G37*
G36*
X192024Y160524D02*
X179634D01*
Y153331D01*
X192024D01*
Y160524D01*
D02*
G37*
G36*
X178634D02*
X166244D01*
Y153331D01*
X178634D01*
Y160524D01*
D02*
G37*
G36*
X175484Y151394D02*
X172425D01*
Y148138D01*
X175484D01*
Y151394D01*
D02*
G37*
G36*
X223516D02*
X220457D01*
Y148138D01*
X223516D01*
Y151394D01*
D02*
G37*
G36*
X266945Y141469D02*
X263492D01*
Y139197D01*
X266945D01*
Y141469D01*
D02*
G37*
G36*
X262492D02*
X259039D01*
Y139197D01*
X262492D01*
Y141469D01*
D02*
G37*
G36*
X355028Y138047D02*
Y134595D01*
X357299D01*
Y138047D01*
X355028D01*
D02*
G37*
G36*
X357299Y133595D02*
X355028D01*
Y130142D01*
X357299D01*
Y133595D01*
D02*
G37*
G36*
X247047Y122897D02*
X244791D01*
Y119595D01*
X249472D01*
Y120472D01*
X249287Y121400D01*
X248762Y122187D01*
X247975Y122712D01*
X247047Y122897D01*
D02*
G37*
G36*
X211221D02*
X208965D01*
Y119595D01*
X213645D01*
Y120472D01*
X213460Y121400D01*
X212935Y122187D01*
X212148Y122712D01*
X211221Y122897D01*
D02*
G37*
G36*
X197835D02*
X195579D01*
Y119595D01*
X200259D01*
Y120472D01*
X200075Y121400D01*
X199549Y122187D01*
X198763Y122712D01*
X197835Y122897D01*
D02*
G37*
G36*
X162008D02*
X159752D01*
Y119595D01*
X164432D01*
Y120472D01*
X164248Y121400D01*
X163722Y122187D01*
X162936Y122712D01*
X162008Y122897D01*
D02*
G37*
G36*
X243791D02*
X241535D01*
X240608Y122712D01*
X239821Y122187D01*
X239295Y121400D01*
X239111Y120472D01*
Y119595D01*
X243791D01*
Y122897D01*
D02*
G37*
G36*
X207965D02*
X205709D01*
X204781Y122712D01*
X203994Y122187D01*
X203469Y121400D01*
X203284Y120472D01*
Y119595D01*
X207965D01*
Y122897D01*
D02*
G37*
G36*
X194579D02*
X192323D01*
X191395Y122712D01*
X190608Y122187D01*
X190083Y121400D01*
X189898Y120472D01*
Y119595D01*
X194579D01*
Y122897D01*
D02*
G37*
G36*
X158752D02*
X156496D01*
X155568Y122712D01*
X154782Y122187D01*
X154256Y121400D01*
X154071Y120472D01*
Y119595D01*
X158752D01*
Y122897D01*
D02*
G37*
G36*
X249472Y118595D02*
X244791D01*
Y115292D01*
X247047D01*
X247975Y115477D01*
X248762Y116002D01*
X249287Y116789D01*
X249472Y117717D01*
Y118595D01*
D02*
G37*
G36*
X243791D02*
X239111D01*
Y117717D01*
X239295Y116789D01*
X239821Y116002D01*
X240608Y115477D01*
X241535Y115292D01*
X243791D01*
Y118595D01*
D02*
G37*
G36*
X213645D02*
X208965D01*
Y115292D01*
X211221D01*
X212148Y115477D01*
X212935Y116002D01*
X213460Y116789D01*
X213645Y117717D01*
Y118595D01*
D02*
G37*
G36*
X207965D02*
X203284D01*
Y117717D01*
X203469Y116789D01*
X203994Y116002D01*
X204781Y115477D01*
X205709Y115292D01*
X207965D01*
Y118595D01*
D02*
G37*
G36*
X200259D02*
X195579D01*
Y115292D01*
X197835D01*
X198763Y115477D01*
X199549Y116002D01*
X200075Y116789D01*
X200259Y117717D01*
Y118595D01*
D02*
G37*
G36*
X194579D02*
X189898D01*
Y117717D01*
X190083Y116789D01*
X190608Y116002D01*
X191395Y115477D01*
X192323Y115292D01*
X194579D01*
Y118595D01*
D02*
G37*
G36*
X164432D02*
X159752D01*
Y115292D01*
X162008D01*
X162936Y115477D01*
X163722Y116002D01*
X164248Y116789D01*
X164432Y117717D01*
Y118595D01*
D02*
G37*
G36*
X158752D02*
X154071D01*
Y117717D01*
X154256Y116789D01*
X154782Y116002D01*
X155568Y115477D01*
X156496Y115292D01*
X158752D01*
Y118595D01*
D02*
G37*
%LPD*%
D16*
X316929Y167323D02*
D03*
Y173228D02*
D03*
Y179134D02*
D03*
X322835Y167323D02*
D03*
Y173228D02*
D03*
Y179134D02*
D03*
X328740Y167323D02*
D03*
Y173228D02*
D03*
Y179134D02*
D03*
D17*
X262992Y141969D02*
D03*
Y147874D02*
D03*
Y153779D02*
D03*
Y159685D02*
D03*
Y165591D02*
D03*
Y171496D02*
D03*
Y177402D02*
D03*
Y183307D02*
D03*
Y189213D02*
D03*
Y195118D02*
D03*
D18*
X354528Y134095D02*
D03*
X348622D02*
D03*
X342717D02*
D03*
X336811D02*
D03*
X330906D02*
D03*
X325000D02*
D03*
X319094D02*
D03*
X313189D02*
D03*
X307283D02*
D03*
X301378D02*
D03*
X295472D02*
D03*
X289567D02*
D03*
X283661D02*
D03*
X277756D02*
D03*
X271850D02*
D03*
X265945D02*
D03*
Y202992D02*
D03*
X271850D02*
D03*
X277756D02*
D03*
X283661D02*
D03*
X289567D02*
D03*
X295472D02*
D03*
X301378D02*
D03*
X307283D02*
D03*
X313189D02*
D03*
X319094D02*
D03*
X325000D02*
D03*
X330906D02*
D03*
X336811D02*
D03*
X342717D02*
D03*
X348622D02*
D03*
X354528D02*
D03*
D24*
X175984Y147638D02*
D03*
X182283D02*
D03*
X224016D02*
D03*
X230315D02*
D03*
X357087Y118110D02*
D03*
X363386D02*
D03*
X348425Y217028D02*
D03*
X354724D02*
D03*
X338583D02*
D03*
X332283D02*
D03*
D25*
X179134Y161024D02*
D03*
Y214567D02*
D03*
D26*
X204409Y185335D02*
D03*
Y190256D02*
D03*
Y195177D02*
D03*
Y180413D02*
D03*
D27*
X342520Y125984D02*
D03*
X336614D02*
D03*
X318898D02*
D03*
X312992D02*
D03*
X307087D02*
D03*
X301181D02*
D03*
X295276D02*
D03*
X289370D02*
D03*
X283465D02*
D03*
X277559D02*
D03*
X271654D02*
D03*
X265748D02*
D03*
X348425D02*
D03*
X342520Y210630D02*
D03*
X336614D02*
D03*
X324803Y125984D02*
D03*
X330709Y210630D02*
D03*
X324803D02*
D03*
X318898D02*
D03*
X312992D02*
D03*
X307087D02*
D03*
X301181D02*
D03*
X295276D02*
D03*
X289370D02*
D03*
X283465D02*
D03*
X277559D02*
D03*
X271654D02*
D03*
X265748D02*
D03*
X253937Y194882D02*
D03*
Y188976D02*
D03*
Y183071D02*
D03*
Y177165D02*
D03*
Y171260D02*
D03*
Y153543D02*
D03*
Y147638D02*
D03*
D28*
X347441Y118110D02*
D03*
X340551D02*
D03*
X324803D02*
D03*
X331693D02*
D03*
X245571Y147638D02*
D03*
X238681D02*
D03*
X198327D02*
D03*
X191437D02*
D03*
D29*
X247244Y184547D02*
D03*
Y177657D02*
D03*
D30*
X208465Y136811D02*
D03*
Y119095D02*
D03*
X244291D02*
D03*
Y136811D02*
D03*
X159252D02*
D03*
Y119095D02*
D03*
X195079D02*
D03*
Y136811D02*
D03*
D31*
X354331Y217421D02*
X354724Y217028D01*
X354331Y217421D02*
Y222933D01*
X253161Y171260D02*
X253937D01*
X247933Y176488D02*
X253161Y171260D01*
X247933Y176488D02*
Y177362D01*
X332283Y217028D02*
X332677Y217421D01*
Y222933D01*
X354724Y216535D02*
X355118Y216929D01*
X247638Y177657D02*
X247933Y177362D01*
X247244Y177657D02*
X247638D01*
X355118Y216929D02*
X360728D01*
X322835Y173228D02*
Y179134D01*
Y167323D02*
Y173228D01*
X328740D01*
X316929D02*
X322835D01*
X179134Y161024D02*
X179527Y161417D01*
X223671Y147662D02*
X224016Y147638D01*
Y153543D01*
X328740Y163386D02*
Y167323D01*
X322835Y163386D02*
Y167323D01*
X312992Y167323D02*
X316929D01*
Y163386D02*
Y167323D01*
X316929Y179134D02*
Y183071D01*
X322835Y179134D02*
Y183071D01*
X316929Y179134D02*
X316929Y179134D01*
X312992Y173228D02*
X316929D01*
X328740Y179134D02*
Y183071D01*
X179527Y161417D02*
X194882D01*
Y113287D02*
Y118898D01*
X195079Y119095D01*
X208563Y113386D02*
Y118996D01*
X208465Y119095D02*
X208563Y118996D01*
X363386Y118110D02*
X363484Y118012D01*
Y112894D02*
Y118012D01*
X363386Y118110D02*
X369390D01*
X328740Y179134D02*
X332677D01*
X328740Y173228D02*
X332677D01*
X328740Y167323D02*
X328740Y167323D01*
X332677D01*
X328740Y179134D02*
X328740Y179134D01*
X316929Y167323D02*
X316929Y167323D01*
X160039Y118307D02*
X167126D01*
X167323Y118110D01*
X159252Y119095D02*
X160039Y118307D01*
X245079D02*
X251772D01*
X244291Y119095D02*
X245079Y118307D01*
X251772D02*
X251969Y118110D01*
X163386Y161417D02*
X178740D01*
X179134Y161024D01*
X163386Y214567D02*
X179134D01*
X194882D01*
X348237Y217216D02*
X348425Y217028D01*
X343536Y217216D02*
X348237D01*
X338771D02*
X343536D01*
X338583Y217028D02*
X338771Y217216D01*
X326772Y217028D02*
X332283D01*
X338583D02*
Y222933D01*
X348425Y217028D02*
Y222933D01*
D32*
X256138Y161669D02*
X256622Y161185D01*
X256890D01*
X256138Y161669D02*
Y161803D01*
X257516Y160559D02*
X262118D01*
X256890Y161185D02*
X257516Y160559D01*
X254000Y163323D02*
X254618D01*
X223943Y193380D02*
X254000Y163323D01*
X223394Y192053D02*
X253543Y161904D01*
Y160728D02*
Y161904D01*
X254618Y163323D02*
X256138Y161803D01*
X210157Y193380D02*
X223943D01*
X262118Y160559D02*
X262992Y159685D01*
X210157Y192053D02*
X223394D01*
X257874Y164529D02*
X261336D01*
X261634Y164232D01*
X262992Y165591D01*
X209673Y193864D02*
Y193919D01*
Y193864D02*
X210157Y193380D01*
X208415Y195177D02*
X209673Y193919D01*
X204409Y195177D02*
X208415D01*
X209673Y191569D02*
X210157Y192053D01*
X204409Y190256D02*
X208415D01*
X209673Y191514D01*
Y191569D01*
D33*
X257283Y141634D02*
X262657D01*
X262992Y141969D01*
X213878Y185335D02*
X214173Y185630D01*
X195374Y185335D02*
X213878D01*
X195177Y185138D02*
X195374Y185335D01*
X195791Y180338D02*
X204334D01*
X195177Y179724D02*
X195791Y180338D01*
X228937Y144460D02*
Y146260D01*
X215945Y142913D02*
X227390D01*
X208465Y136811D02*
X209842D01*
X228937Y146260D02*
X230315Y147638D01*
X227390Y142913D02*
X228937Y144460D01*
X209842Y136811D02*
X215945Y142913D01*
X222423Y156905D02*
X222564Y157047D01*
X225609Y156905D02*
X232618D01*
X225467Y157047D02*
X225609Y156905D01*
X214189D02*
X222423D01*
X222564Y157047D02*
X225467D01*
X182283Y147638D02*
X191437D01*
X166732Y142913D02*
X179359D01*
X180905Y146260D02*
X182283Y147638D01*
X180905Y144460D02*
Y146260D01*
X179359Y142913D02*
X180905Y144460D01*
X160630Y136811D02*
X166732Y142913D01*
X159252Y136811D02*
X160630D01*
X192520Y145669D02*
Y146555D01*
X195079Y136811D02*
Y143110D01*
X192520Y145669D02*
X195079Y143110D01*
X191437Y147638D02*
X192520Y146555D01*
X243020Y136811D02*
X244291D01*
X238681Y141150D02*
X243020Y136811D01*
X238681Y141150D02*
Y147638D01*
X230315D02*
X238681D01*
X198327D02*
X198425Y147539D01*
X204823D01*
X232618Y156905D02*
X235773Y153751D01*
X204823Y147539D02*
X214189Y156905D01*
X274705Y153937D02*
X276969D01*
X313681Y190650D01*
X274606Y153839D02*
X274705Y153937D01*
X245838Y147905D02*
X249796D01*
X342717Y201811D02*
Y202992D01*
X340551Y199646D02*
X342717Y201811D01*
X340551Y199224D02*
Y199646D01*
X331977Y190650D02*
X340551Y199224D01*
X313681Y190650D02*
X331977D01*
X245571Y147638D02*
X245838Y147905D01*
X270571Y147638D02*
X341634D01*
X348622Y140650D01*
Y134095D02*
Y140650D01*
X354331Y127953D02*
Y133898D01*
X204409Y180413D02*
X213583D01*
X204334Y180338D02*
X204409Y180413D01*
X213583D02*
X213984Y180012D01*
X348425Y125558D02*
Y125984D01*
X347441Y124574D02*
X348425Y125558D01*
X347441Y118110D02*
Y124574D01*
Y118110D02*
X357087D01*
X342618Y203091D02*
Y210531D01*
Y203091D02*
X342717Y202992D01*
X342520Y210630D02*
X342618Y210531D01*
X336713Y203091D02*
Y210531D01*
Y203091D02*
X336811Y202992D01*
X336614Y210630D02*
X336713Y210531D01*
X330709Y210630D02*
X330807Y210531D01*
Y203091D02*
X330906Y202992D01*
X330807Y203091D02*
Y210531D01*
X324902Y203091D02*
X325000Y202992D01*
X324902Y203091D02*
Y210531D01*
X324803Y210630D02*
X324902Y210531D01*
X318898Y210630D02*
X318996Y210531D01*
Y203091D02*
X319094Y202992D01*
X318996Y203091D02*
Y210531D01*
X313090Y203091D02*
X313189Y202992D01*
X313090Y203091D02*
Y210531D01*
X312992Y210630D02*
X313090Y210531D01*
X307185Y203091D02*
X307283Y202992D01*
X307185Y203091D02*
Y210531D01*
X307087Y210630D02*
X307185Y210531D01*
X301279Y203091D02*
Y210531D01*
X301181Y210630D02*
X301279Y210531D01*
Y203091D02*
X301378Y202992D01*
X295276Y210630D02*
X295374Y210531D01*
Y203091D02*
X295472Y202992D01*
X295374Y203091D02*
Y210531D01*
X289469Y203091D02*
Y210531D01*
Y203091D02*
X289567Y202992D01*
X289370Y210630D02*
X289469Y210531D01*
X283563Y203091D02*
Y210531D01*
X283465Y210630D02*
X283563Y210531D01*
Y203091D02*
X283661Y202992D01*
X277658Y203091D02*
Y210531D01*
X277559Y210630D02*
X277658Y210531D01*
Y203091D02*
X277756Y202992D01*
X271752Y203091D02*
Y210531D01*
Y203091D02*
X271850Y202992D01*
X271654Y210630D02*
X271752Y210531D01*
X265748Y210630D02*
X265846Y210531D01*
Y203091D02*
X265945Y202992D01*
X265846Y203091D02*
Y210531D01*
X254055Y195000D02*
X262874D01*
X253937Y194882D02*
X254055Y195000D01*
X262874D02*
X262992Y195118D01*
X254055Y189094D02*
X262874D01*
X253937Y188976D02*
X254055Y189094D01*
X262874D02*
X262992Y189213D01*
X254055Y183189D02*
X262874D01*
X262992Y183307D01*
X253937Y183071D02*
X254055Y183189D01*
X262874Y177284D02*
X262992Y177402D01*
X254055Y177284D02*
X262874D01*
X253937Y177165D02*
X254055Y177284D01*
Y171378D02*
X262874D01*
X253937Y171260D02*
X254055Y171378D01*
X262874D02*
X262992Y171496D01*
X262874Y153661D02*
X262992Y153779D01*
X254055Y153661D02*
X262874D01*
X253937Y153543D02*
X254055Y153661D01*
Y147756D02*
X262874D01*
X262992Y147874D01*
X253937Y147638D02*
X254055Y147756D01*
X265846Y126083D02*
Y133996D01*
X265748Y125984D02*
X265846Y126083D01*
Y133996D02*
X265945Y134095D01*
X271752Y126083D02*
Y133996D01*
X271850Y134095D01*
X271654Y125984D02*
X271752Y126083D01*
X277658Y133996D02*
X277756Y134095D01*
X277658Y126083D02*
Y133996D01*
X277559Y125984D02*
X277658Y126083D01*
X283465Y125984D02*
X283563Y126083D01*
Y133996D02*
X283661Y134095D01*
X283563Y126083D02*
Y133996D01*
X289469D02*
X289567Y134095D01*
X289469Y126083D02*
Y133996D01*
X289370Y125984D02*
X289469Y126083D01*
X295374D02*
Y133996D01*
X295276Y125984D02*
X295374Y126083D01*
Y133996D02*
X295472Y134095D01*
X301181Y125984D02*
X301279Y126083D01*
Y133996D02*
X301378Y134095D01*
X301279Y126083D02*
Y133996D01*
X307185Y126083D02*
Y133996D01*
X307283Y134095D01*
X307087Y125984D02*
X307185Y126083D01*
X313090Y126083D02*
Y133996D01*
X313189Y134095D01*
X312992Y125984D02*
X313090Y126083D01*
X318996D02*
Y133996D01*
X319094Y134095D01*
X318898Y125984D02*
X318996Y126083D01*
X324803Y125984D02*
X324902Y126083D01*
Y133996D02*
X325000Y134095D01*
X324902Y126083D02*
Y133996D01*
X327461Y121583D02*
X330906Y125028D01*
X327461Y121161D02*
Y121583D01*
X324803Y118504D02*
X327461Y121161D01*
X330906Y125028D02*
Y134095D01*
X324803Y118110D02*
Y118504D01*
X336713Y126083D02*
Y133996D01*
X336811Y134095D01*
X336614Y125984D02*
X336713Y126083D01*
X342618Y133996D02*
X342717Y134095D01*
X342618Y126083D02*
Y133996D01*
X342520Y125984D02*
X342618Y126083D01*
X348524D02*
Y133996D01*
X348622Y134095D01*
X348425Y125984D02*
X348524Y126083D01*
X263228Y141732D02*
X267717D01*
X354331Y133898D02*
X354528Y134095D01*
X354331Y134291D02*
Y139764D01*
Y134291D02*
X354528Y134095D01*
X262992Y141969D02*
X263228Y141732D01*
D34*
X235773Y153751D02*
X249793D01*
D35*
X241339Y185039D02*
X246752D01*
X247244Y184547D01*
Y190945D01*
X331693Y118110D02*
X332382Y117421D01*
Y112500D02*
Y117421D01*
Y112500D02*
X332677Y112205D01*
X340551D02*
Y118110D01*
X348524Y203091D02*
X348622Y202992D01*
X348524Y203091D02*
Y216437D01*
X348425Y217028D02*
X348524Y216929D01*
D36*
X360728D02*
D03*
X249796Y147905D02*
D03*
X253543Y160728D02*
D03*
X257283Y141634D02*
D03*
X245965Y156988D02*
D03*
X245768Y141831D02*
D03*
X246161Y161417D02*
D03*
X242618Y167913D02*
D03*
X236221Y168012D02*
D03*
X214173Y185630D02*
D03*
X195177Y185138D02*
D03*
Y179724D02*
D03*
X311122Y179134D02*
D03*
X346457Y188976D02*
D03*
Y173228D02*
D03*
Y157480D02*
D03*
X330709D02*
D03*
Y141732D02*
D03*
X314961Y220472D02*
D03*
Y157480D02*
D03*
Y141732D02*
D03*
X299213Y220472D02*
D03*
Y188976D02*
D03*
Y157480D02*
D03*
Y141732D02*
D03*
X283465Y220472D02*
D03*
Y188976D02*
D03*
Y173228D02*
D03*
Y141732D02*
D03*
X267717Y220472D02*
D03*
X251969D02*
D03*
Y204724D02*
D03*
Y141732D02*
D03*
Y125984D02*
D03*
X236220Y220472D02*
D03*
Y204724D02*
D03*
Y188976D02*
D03*
X220472Y220472D02*
D03*
Y204724D02*
D03*
Y188976D02*
D03*
Y173228D02*
D03*
Y125984D02*
D03*
X204724Y220472D02*
D03*
Y204724D02*
D03*
X188976D02*
D03*
Y188976D02*
D03*
X173228Y204724D02*
D03*
Y188976D02*
D03*
X157480Y220472D02*
D03*
Y204724D02*
D03*
Y188976D02*
D03*
Y173228D02*
D03*
Y157480D02*
D03*
Y125984D02*
D03*
X224016Y153543D02*
D03*
X274606Y153839D02*
D03*
X249793Y153751D02*
D03*
X322835Y163386D02*
D03*
X316929D02*
D03*
X312992Y167323D02*
D03*
X328740Y163386D02*
D03*
X256890Y157677D02*
D03*
X257874Y164529D02*
D03*
X255020Y166437D02*
D03*
X316929Y183071D02*
D03*
X322835D02*
D03*
X312992Y173228D02*
D03*
X328740Y183071D02*
D03*
X194882Y161417D02*
D03*
X270571Y147638D02*
D03*
X354331Y127953D02*
D03*
X194882Y113287D02*
D03*
X208563Y113386D02*
D03*
X213984Y180012D02*
D03*
X363484Y112894D02*
D03*
X369390Y118110D02*
D03*
X267717Y141732D02*
D03*
X241339Y185039D02*
D03*
X247244Y190945D02*
D03*
X332677Y112205D02*
D03*
X340551D02*
D03*
X332677Y179134D02*
D03*
Y173228D02*
D03*
Y167323D02*
D03*
X226378Y161417D02*
D03*
X354331Y139764D02*
D03*
X167323Y118110D02*
D03*
X251969D02*
D03*
X230315Y127953D02*
D03*
X218504Y120079D02*
D03*
X230315Y114173D02*
D03*
Y153543D02*
D03*
X216535Y137795D02*
D03*
X210630Y131874D02*
D03*
X173228Y122047D02*
D03*
X163386Y131890D02*
D03*
Y151575D02*
D03*
Y161417D02*
D03*
Y214567D02*
D03*
X194882D02*
D03*
X179134Y223410D02*
D03*
X343536Y217216D02*
D03*
X326772Y217028D02*
D03*
X332677Y222933D02*
D03*
X338583D02*
D03*
X354331D02*
D03*
X348425D02*
D03*
M02*
