G04*
G04 #@! TF.GenerationSoftware,Altium Limited,Altium Designer,22.10.1 (41)*
G04*
G04 Layer_Color=65535*
%FSLAX25Y25*%
%MOIN*%
G70*
G04*
G04 #@! TF.SameCoordinates,383651A2-C0D2-4D73-959B-37C4E0350145*
G04*
G04*
G04 #@! TF.FilePolarity,Positive*
G04*
G01*
G75*
%ADD10C,0.00984*%
%ADD11C,0.00787*%
%ADD12C,0.00591*%
D10*
X355020Y208307D02*
X354281Y208733D01*
Y207881D01*
X355020Y208307D01*
D11*
X204409Y198425D02*
Y211417D01*
X192598D02*
X204409D01*
X192598Y164173D02*
X204409D01*
Y177165D01*
X357776Y204272D02*
X384350D01*
X261713D02*
X262697D01*
X261713Y132815D02*
Y138721D01*
Y198366D02*
Y204272D01*
X357776Y132815D02*
X384350D01*
X261713D02*
X262697D01*
X384350D02*
Y204272D01*
X213878Y116453D02*
X238878D01*
X213378Y123453D02*
Y132453D01*
X239378Y123453D02*
Y132453D01*
X213878Y139453D02*
X238878D01*
X164665Y116453D02*
X189665D01*
X164165Y123453D02*
Y132453D01*
X190165Y123453D02*
Y132453D01*
X164665Y139453D02*
X189665D01*
D12*
X350689Y114567D02*
Y115354D01*
X337303Y114567D02*
X350689D01*
X337303D02*
Y115354D01*
X350689Y120866D02*
Y121653D01*
X337303D02*
X350689D01*
X337303Y120866D02*
Y121653D01*
X343996Y114567D02*
Y121653D01*
X321555Y120866D02*
Y121653D01*
X334941D01*
Y120866D02*
Y121653D01*
X321555Y114567D02*
Y115354D01*
Y114567D02*
X334941D01*
Y115354D01*
X328248Y114567D02*
Y121653D01*
X250000Y187795D02*
X250787D01*
Y174409D02*
Y187795D01*
X250000Y174409D02*
X250787D01*
X243701Y187795D02*
X244488D01*
X243701Y174409D02*
Y187795D01*
Y174409D02*
X244488D01*
X243701Y181102D02*
X250787D01*
X248819Y144095D02*
Y144882D01*
X235433Y144095D02*
X248819D01*
X235433D02*
Y144882D01*
X248819Y150394D02*
Y151181D01*
X235433D02*
X248819D01*
X235433Y150394D02*
Y151181D01*
X242126Y144095D02*
Y151181D01*
X201575Y144095D02*
Y144882D01*
X188189Y144095D02*
X201575D01*
X188189D02*
Y144882D01*
X201575Y150394D02*
Y151181D01*
X188189D02*
X201575D01*
X188189Y150394D02*
Y151181D01*
X194882Y144095D02*
Y151181D01*
M02*
