M48
;Layer_Color=9474304
;FILE_FORMAT=2:4
INCH,TZ
;TYPE=PLATED
T1F00S00C0.0118
;TYPE=NON_PLATED
T2F00S00C0.0551
%
T01
X15748Y12598
X16339Y13189
X16732Y11811
X17323Y12205
X19488Y11329
X20856Y11339
X21850Y12008
X22047Y12598
X23031Y12795
Y11417
X25197Y11811
X25197Y12598
Y14173
X25728Y14163
X26772Y14173
X27057Y14764
X27461Y15384
X28346Y14173
X29921
X24577Y14183
X24980Y14791
X24979Y15375
X23031Y15354
X22402
X21654Y13780
X21063Y13187
X16339Y15157
X31496Y14173
X33071
X35433Y13976
Y12795
X36348Y11289
X36939Y11811
X34055Y11220
X33268
X33071Y15748
X32874Y16339
X32283
X31693
X31299Y16732
Y17323
X31693Y18307
X32283
X32874
X33268Y17913
Y17323
Y16732
X34646Y17323
Y18898
X34354Y21722
X34843Y22293
X35433
X36073Y21693
X33858Y22293
X33268
X32677Y21703
X31496Y22047
Y15748
X34646
X29921
Y18898
X28346
Y17323
X31112Y17913
X29921Y22047
X28346
X26772
X25197
Y20472
X23622
Y22047
X22047
Y20472
Y18898
X21417Y18563
X21398Y18001
X22047Y17323
X22638Y16142
X23622Y16801
X24262Y16791
X24616Y16142
X24596Y15699
X25354Y16073
X25689Y15768
X25787Y16453
X25502Y16644
X24724Y19094
X24134Y18504
X23622Y18898
X19518Y18514
Y17972
X18898Y18898
Y20472
X20472
Y22047
X19488Y21457
X17913Y22341
X16339Y21457
X15748Y22047
Y20472
X17323
Y18898
X15748
Y17323
Y15748
X16339Y16142
X19488
T02
X17685Y17697
Y19862
M30
