G04*
G04 #@! TF.GenerationSoftware,Altium Limited,Altium Designer,22.10.1 (41)*
G04*
G04 Layer_Color=8388736*
%FSLAX25Y25*%
%MOIN*%
G70*
G04*
G04 #@! TF.SameCoordinates,E8527AC8-6374-4482-B45D-AD16E201B1AE*
G04*
G04*
G04 #@! TF.FilePolarity,Positive*
G04*
G01*
G75*
%ADD49C,0.01000*%
D49*
X385827Y218504D02*
X385759Y219532D01*
X385559Y220542D01*
X385227Y221517D01*
X384772Y222441D01*
X384200Y223297D01*
X383521Y224072D01*
X382746Y224751D01*
X381890Y225323D01*
X380966Y225779D01*
X379991Y226110D01*
X378980Y226311D01*
X377953Y226378D01*
Y108268D02*
X378980Y108335D01*
X379991Y108536D01*
X380966Y108867D01*
X381890Y109323D01*
X382746Y109895D01*
X383521Y110574D01*
X384200Y111348D01*
X384772Y112205D01*
X385227Y113128D01*
X385559Y114104D01*
X385759Y115114D01*
X385827Y116142D01*
X157480Y226378D02*
X156453Y226311D01*
X155442Y226110D01*
X154467Y225779D01*
X153543Y225323D01*
X152687Y224751D01*
X151912Y224072D01*
X151233Y223297D01*
X150661Y222441D01*
X150206Y221517D01*
X149875Y220542D01*
X149674Y219532D01*
X149606Y218504D01*
Y116142D02*
X149674Y115114D01*
X149875Y114104D01*
X150206Y113128D01*
X150661Y112205D01*
X151233Y111348D01*
X151912Y110574D01*
X152687Y109895D01*
X153543Y109323D01*
X154467Y108867D01*
X155442Y108536D01*
X156453Y108335D01*
X157480Y108268D01*
X377953D01*
X157480Y226378D02*
X377953D01*
X385827Y116142D02*
Y218504D01*
X149606Y116142D02*
Y218504D01*
M02*
