G04*
G04 #@! TF.GenerationSoftware,Altium Limited,Altium Designer,22.10.1 (41)*
G04*
G04 Layer_Physical_Order=3*
G04 Layer_Color=128*
%FSLAX25Y25*%
%MOIN*%
G70*
G04*
G04 #@! TF.SameCoordinates,E8527AC8-6374-4482-B45D-AD16E201B1AE*
G04*
G04*
G04 #@! TF.FilePolarity,Negative*
G04*
G01*
G75*
%ADD37C,0.04000*%
%ADD38C,0.09512*%
%ADD39C,0.05181*%
D37*
X149606Y116142D02*
X149674Y115114D01*
X149875Y114104D01*
X150206Y113128D01*
X150661Y112205D01*
X151233Y111348D01*
X151912Y110574D01*
X152687Y109895D01*
X153543Y109323D01*
X154467Y108867D01*
X155442Y108536D01*
X156453Y108335D01*
X157480Y108268D01*
X377953D02*
X378980Y108335D01*
X379991Y108536D01*
X380966Y108867D01*
X381890Y109323D01*
X382746Y109895D01*
X383521Y110574D01*
X384200Y111348D01*
X384772Y112205D01*
X385227Y113128D01*
X385559Y114104D01*
X385759Y115114D01*
X385827Y116142D01*
Y218504D02*
X385759Y219532D01*
X385559Y220542D01*
X385227Y221517D01*
X384772Y222441D01*
X384200Y223297D01*
X383521Y224072D01*
X382746Y224751D01*
X381890Y225323D01*
X380966Y225779D01*
X379991Y226110D01*
X378980Y226311D01*
X377953Y226378D01*
X157480D02*
X156453Y226311D01*
X155442Y226110D01*
X154467Y225779D01*
X153543Y225323D01*
X152687Y224751D01*
X151912Y224072D01*
X151233Y223297D01*
X150661Y222441D01*
X150206Y221517D01*
X149875Y220542D01*
X149674Y219532D01*
X149606Y218504D01*
X157480Y108268D02*
X377953D01*
X385827Y116142D02*
Y218504D01*
X157480Y226378D02*
X377953D01*
X149606Y116142D02*
Y218504D01*
D38*
X176850Y198622D02*
D03*
Y176969D02*
D03*
D39*
X360728Y216929D02*
D03*
X249796Y147905D02*
D03*
X253543Y160728D02*
D03*
X257283Y141634D02*
D03*
X214173Y185630D02*
D03*
X195177Y185138D02*
D03*
Y179724D02*
D03*
X311122Y179134D02*
D03*
X346457Y188976D02*
D03*
Y173228D02*
D03*
Y157480D02*
D03*
X330709D02*
D03*
Y141732D02*
D03*
X314961Y220472D02*
D03*
Y157480D02*
D03*
Y141732D02*
D03*
X299213Y220472D02*
D03*
Y188976D02*
D03*
Y157480D02*
D03*
Y141732D02*
D03*
X283465Y220472D02*
D03*
Y188976D02*
D03*
Y173228D02*
D03*
Y141732D02*
D03*
X267717Y220472D02*
D03*
X251969D02*
D03*
Y204724D02*
D03*
Y141732D02*
D03*
Y125984D02*
D03*
X236220Y220472D02*
D03*
Y204724D02*
D03*
Y188976D02*
D03*
X220472Y220472D02*
D03*
Y204724D02*
D03*
Y188976D02*
D03*
Y173228D02*
D03*
Y125984D02*
D03*
X204724Y220472D02*
D03*
Y204724D02*
D03*
X188976D02*
D03*
Y188976D02*
D03*
X173228Y204724D02*
D03*
Y188976D02*
D03*
X157480Y220472D02*
D03*
Y204724D02*
D03*
Y188976D02*
D03*
Y173228D02*
D03*
Y157480D02*
D03*
Y125984D02*
D03*
X224016Y153543D02*
D03*
X274606Y153839D02*
D03*
X249793Y153751D02*
D03*
X322835Y163386D02*
D03*
X316929D02*
D03*
X312992Y167323D02*
D03*
X328740Y163386D02*
D03*
X256890Y157677D02*
D03*
X257874Y164529D02*
D03*
X255020Y166437D02*
D03*
X316929Y183071D02*
D03*
X322835D02*
D03*
X312992Y173228D02*
D03*
X328740Y183071D02*
D03*
X194882Y161417D02*
D03*
X270571Y147638D02*
D03*
X354331Y127953D02*
D03*
X194882Y113287D02*
D03*
X208563Y113386D02*
D03*
X213984Y180012D02*
D03*
X363484Y112894D02*
D03*
X369390Y118110D02*
D03*
X267717Y141732D02*
D03*
X332677Y179134D02*
D03*
Y173228D02*
D03*
Y167323D02*
D03*
X226378Y161417D02*
D03*
X354331Y139764D02*
D03*
X167323Y118110D02*
D03*
X251969D02*
D03*
X230315Y127953D02*
D03*
X218504Y120079D02*
D03*
X230315Y114173D02*
D03*
Y153543D02*
D03*
X216535Y137795D02*
D03*
X210630Y131874D02*
D03*
X173228Y122047D02*
D03*
X163386Y131890D02*
D03*
Y151575D02*
D03*
Y161417D02*
D03*
Y214567D02*
D03*
X194882D02*
D03*
X179134Y223410D02*
D03*
X326772Y217028D02*
D03*
X332677Y222933D02*
D03*
X354331D02*
D03*
M02*
