G04*
G04 #@! TF.GenerationSoftware,Altium Limited,Altium Designer,22.10.1 (41)*
G04*
G04 Layer_Color=8388736*
%FSLAX25Y25*%
%MOIN*%
G70*
G04*
G04 #@! TF.SameCoordinates,E8527AC8-6374-4482-B45D-AD16E201B1AE*
G04*
G04*
G04 #@! TF.FilePolarity,Negative*
G04*
G01*
G75*
%ADD13R,0.05512X0.05906*%
%ADD14R,0.24173X0.13780*%
%ADD15O,0.12205X0.03150*%
%ADD16R,0.04331X0.04331*%
%ADD17R,0.05906X0.03543*%
%ADD18R,0.03543X0.05906*%
%ADD19C,0.04331*%
%ADD20R,0.04921X0.05709*%
%ADD21R,0.05709X0.04921*%
G04:AMPARAMS|DCode=22|XSize=59.06mil|YSize=86.61mil|CornerRadius=15.75mil|HoleSize=0mil|Usage=FLASHONLY|Rotation=90.000|XOffset=0mil|YOffset=0mil|HoleType=Round|Shape=RoundedRectangle|*
%AMROUNDEDRECTD22*
21,1,0.05906,0.05512,0,0,90.0*
21,1,0.02756,0.08661,0,0,90.0*
1,1,0.03150,0.02756,0.01378*
1,1,0.03150,0.02756,-0.01378*
1,1,0.03150,-0.02756,-0.01378*
1,1,0.03150,-0.02756,0.01378*
%
%ADD22ROUNDEDRECTD22*%
%ADD23R,0.00394X0.00394*%
D13*
X175984Y147638D02*
D03*
X182283D02*
D03*
X224016D02*
D03*
X230315D02*
D03*
X357087Y118110D02*
D03*
X363386D02*
D03*
X348425Y217028D02*
D03*
X354724D02*
D03*
X338583D02*
D03*
X332283D02*
D03*
D14*
X179134Y161024D02*
D03*
Y214567D02*
D03*
D15*
X204409Y185335D02*
D03*
Y190256D02*
D03*
Y195177D02*
D03*
Y180413D02*
D03*
D16*
X316929Y167323D02*
D03*
Y173228D02*
D03*
Y179134D02*
D03*
X322835Y167323D02*
D03*
Y173228D02*
D03*
Y179134D02*
D03*
X328740Y167323D02*
D03*
Y173228D02*
D03*
Y179134D02*
D03*
D17*
X262992Y141969D02*
D03*
Y147874D02*
D03*
Y153779D02*
D03*
Y159685D02*
D03*
Y165591D02*
D03*
Y171496D02*
D03*
Y177402D02*
D03*
Y183307D02*
D03*
Y189213D02*
D03*
Y195118D02*
D03*
D18*
X354528Y134095D02*
D03*
X348622D02*
D03*
X342717D02*
D03*
X336811D02*
D03*
X330906D02*
D03*
X325000D02*
D03*
X319094D02*
D03*
X313189D02*
D03*
X307283D02*
D03*
X301378D02*
D03*
X295472D02*
D03*
X289567D02*
D03*
X283661D02*
D03*
X277756D02*
D03*
X271850D02*
D03*
X265945D02*
D03*
Y202992D02*
D03*
X271850D02*
D03*
X277756D02*
D03*
X283661D02*
D03*
X289567D02*
D03*
X295472D02*
D03*
X301378D02*
D03*
X307283D02*
D03*
X313189D02*
D03*
X319094D02*
D03*
X325000D02*
D03*
X330906D02*
D03*
X336811D02*
D03*
X342717D02*
D03*
X348622D02*
D03*
X354528D02*
D03*
D19*
X342520Y125984D02*
D03*
X336614D02*
D03*
X318898D02*
D03*
X312992D02*
D03*
X307087D02*
D03*
X301181D02*
D03*
X295276D02*
D03*
X289370D02*
D03*
X283465D02*
D03*
X277559D02*
D03*
X271654D02*
D03*
X265748D02*
D03*
X348425D02*
D03*
X342520Y210630D02*
D03*
X336614D02*
D03*
X324803Y125984D02*
D03*
X330709Y210630D02*
D03*
X324803D02*
D03*
X318898D02*
D03*
X312992D02*
D03*
X307087D02*
D03*
X301181D02*
D03*
X295276D02*
D03*
X289370D02*
D03*
X283465D02*
D03*
X277559D02*
D03*
X271654D02*
D03*
X265748D02*
D03*
X253937Y194882D02*
D03*
Y188976D02*
D03*
Y183071D02*
D03*
Y177165D02*
D03*
Y171260D02*
D03*
Y153543D02*
D03*
Y147638D02*
D03*
D20*
X347441Y118110D02*
D03*
X340551D02*
D03*
X324803D02*
D03*
X331693D02*
D03*
X245571Y147638D02*
D03*
X238681D02*
D03*
X198327D02*
D03*
X191437D02*
D03*
D21*
X247244Y184547D02*
D03*
Y177657D02*
D03*
D22*
X208465Y136811D02*
D03*
Y119095D02*
D03*
X244291D02*
D03*
Y136811D02*
D03*
X159252D02*
D03*
Y119095D02*
D03*
X195079D02*
D03*
Y136811D02*
D03*
D23*
X176850Y198622D02*
D03*
Y176969D02*
D03*
M02*
